<svg width="164" height="54" viewBox="0 0 164 54" fill="none" xmlns="http://www.w3.org/2000/svg">
<path d="M0 8C0 4.68629 2.68629 2 6 2H29.9649C33.2786 2 35.9649 4.68629 35.9649 8V46C35.9649 49.3137 33.2786 52 29.9649 52H6C2.68629 52 0 49.3137 0 46V8Z" fill="#428AF5"/>
<path d="M29.848 30.448C30.2107 30.448 30.392 30.9387 30.392 31.92C30.392 32.4533 30.168 33.104 29.72 33.872C29.272 34.6187 28.6853 35.312 27.96 35.952C27.256 36.5707 26.4667 37.0827 25.592 37.488C24.7173 37.8933 23.8853 38.096 23.096 38.096C22.3067 38.096 21.688 37.9467 21.24 37.648C20.792 37.3493 20.44 36.944 20.184 36.432C19.8213 35.7067 19.5227 34.3307 19.288 32.304C19.0533 30.256 18.8187 28.8267 18.584 28.016C18.0293 27.9093 17.5387 27.696 17.112 27.376C16.7067 27.0347 16.504 26.6293 16.504 26.16C16.504 25.6693 16.7173 25.3173 17.144 25.104C17.592 24.8907 18.0933 24.784 18.648 24.784C19.224 24.784 19.736 24.9227 20.184 25.2C20.7813 24.7093 21.2613 24.1333 21.624 23.472C22.008 22.7893 22.2 21.8827 22.2 20.752C22.2 19.6 21.816 18.6827 21.048 18C20.28 17.3173 19.1493 16.976 17.656 16.976C16.184 16.976 15.0533 17.0933 14.264 17.328C13.4747 17.5627 12.792 17.8187 12.216 18.096C11.6613 18.3733 11.16 18.6293 10.712 18.864C10.2853 19.0987 9.88 19.216 9.496 19.216C9.112 19.216 8.92 19.0987 8.92 18.864C8.92 18.608 9.12267 18.2027 9.528 17.648C9.93333 17.0933 10.5307 16.5387 11.32 15.984C13.304 14.5973 15.544 13.9147 18.04 13.936C20.536 13.936 22.5947 14.4053 24.216 15.344C26.1147 16.4533 27.064 18.1173 27.064 20.336C27.0853 22.1707 26.6053 23.696 25.624 24.912C24.6427 26.128 23.4267 27.0027 21.976 27.536C22.296 28.24 22.552 28.9973 22.744 29.808C22.9573 30.6187 23.16 31.3653 23.352 32.048C23.544 32.7307 23.7573 33.296 23.992 33.744C24.248 34.192 24.5467 34.416 24.888 34.416C25.2507 34.416 25.6773 34.2133 26.168 33.808C26.68 33.3813 27.1813 32.9227 27.672 32.432C28.1627 31.9413 28.6 31.4933 28.984 31.088C29.3893 30.6613 29.6773 30.448 29.848 30.448ZM15.928 18.928C16.2053 18.928 16.344 19.2907 16.344 20.016C16.344 20.7413 16.3013 21.424 16.216 22.064C16.024 23.3013 15.7787 24.4533 15.48 25.52C14.712 28.4213 14.328 30.1173 14.328 30.608V35.312C14.328 36.464 13.8907 37.2533 13.016 37.68C12.6107 37.872 12.216 38.0533 11.832 38.224C11.4693 38.3947 11.0533 38.48 10.584 38.48C9.688 38.48 9.24 37.456 9.24 35.408C9.24 33.3387 9.72 30.736 10.68 27.6C11.64 24.464 12.6427 22.0747 13.688 20.432C13.9013 20.112 14.2107 19.7813 14.616 19.44C15.0213 19.0987 15.4587 18.928 15.928 18.928Z" fill="white"/>
<path d="M43.5758 20.9141H47.2281C48.025 20.9141 48.7002 21.0524 49.2535 21.3291C49.8069 21.6058 50.2275 22.0153 50.5153 22.5576C50.8086 23.0944 50.9552 23.7612 50.9552 24.5581C50.9552 25.1613 50.8639 25.6925 50.6813 26.1519C50.5042 26.6112 50.2469 26.9985 49.9093 27.314C49.5717 27.6239 49.165 27.8646 48.6891 28.0361L48.0997 28.3599H45.0118L45.0035 26.6665H47.1783C47.5712 26.6665 47.8977 26.5807 48.1578 26.4092C48.4179 26.2376 48.6116 25.9997 48.7389 25.6953C48.8717 25.391 48.9381 25.0451 48.9381 24.6577C48.9381 24.2427 48.88 23.883 48.7638 23.5786C48.6476 23.2687 48.465 23.0308 48.2159 22.8647C47.9669 22.6932 47.6377 22.6074 47.2281 22.6074H45.5929V33H43.5758V20.9141ZM49.2037 33L46.9044 27.5713L49.0045 27.563L51.3619 32.8921V33H49.2037ZM58.6268 33.166C58.0457 33.166 57.5283 33.0802 57.0745 32.9087C56.6208 32.7316 56.2362 32.4715 55.9207 32.1284C55.6053 31.7798 55.3646 31.3537 55.1986 30.8501C55.0325 30.341 54.9495 29.7516 54.9495 29.082V28.2188C54.9495 27.4606 55.0353 26.8076 55.2069 26.2598C55.3839 25.7064 55.6274 25.2526 55.9373 24.8984C56.2472 24.5443 56.6125 24.2814 57.033 24.1099C57.4591 23.9383 57.9212 23.8525 58.4193 23.8525C58.9837 23.8525 59.4735 23.9438 59.8885 24.1265C60.3035 24.3091 60.6439 24.583 60.9095 24.9482C61.1807 25.3135 61.3799 25.7645 61.5072 26.3013C61.64 26.8381 61.7064 27.4551 61.7064 28.1523V29.1235H55.8792V27.6626H59.7972V27.4551C59.7861 27.0456 59.7363 26.6942 59.6478 26.4009C59.5592 26.1021 59.4154 25.8752 59.2161 25.7202C59.0225 25.5597 58.7541 25.4795 58.411 25.4795C58.1619 25.4795 57.9406 25.5265 57.7469 25.6206C57.5532 25.7147 57.3927 25.8669 57.2655 26.0771C57.1437 26.2874 57.0496 26.5697 56.9832 26.9238C56.9168 27.2725 56.8836 27.7041 56.8836 28.2188V29.082C56.8836 29.5303 56.9224 29.9093 56.9998 30.2192C57.0828 30.5291 57.2046 30.7837 57.3651 30.9829C57.5255 31.1766 57.7192 31.3205 57.9461 31.4146C58.1785 31.5031 58.4469 31.5474 58.7513 31.5474C59.1995 31.5474 59.5841 31.4644 59.9051 31.2983C60.2316 31.1268 60.5138 30.9054 60.7518 30.6343L61.6068 31.8213C61.4463 32.0371 61.2305 32.2502 60.9593 32.4604C60.6881 32.6652 60.3589 32.834 59.9715 32.9668C59.5897 33.0996 59.1414 33.166 58.6268 33.166ZM69.9673 30.6343C69.9673 30.4461 69.912 30.2801 69.8013 30.1362C69.6962 29.9868 69.5246 29.8402 69.2866 29.6963C69.0487 29.5524 68.7305 29.3975 68.3321 29.2314C67.917 29.0599 67.549 28.8883 67.2281 28.7168C66.9071 28.5452 66.6359 28.3571 66.4146 28.1523C66.1932 27.9421 66.0244 27.7013 65.9082 27.4302C65.792 27.159 65.7339 26.8436 65.7339 26.4839C65.7339 26.1131 65.8031 25.77 65.9414 25.4546C66.0798 25.1392 66.279 24.8625 66.5391 24.6245C66.7992 24.381 67.1118 24.1929 67.4771 24.0601C67.8423 23.9217 68.2546 23.8525 68.7139 23.8525C69.3614 23.8525 69.9147 23.9715 70.374 24.2095C70.8389 24.4419 71.1931 24.7684 71.4365 25.189C71.6856 25.604 71.8101 26.0827 71.8101 26.625H69.876C69.876 26.3981 69.8345 26.1934 69.7515 26.0107C69.6685 25.8226 69.5412 25.6732 69.3697 25.5625C69.1981 25.4463 68.9795 25.3882 68.7139 25.3882C68.4704 25.3882 68.2656 25.4352 68.0996 25.5293C67.9392 25.6178 67.8174 25.7396 67.7344 25.8945C67.6569 26.0439 67.6182 26.2127 67.6182 26.4009C67.6182 26.5392 67.6431 26.661 67.6929 26.7661C67.7427 26.8713 67.8257 26.9736 67.9419 27.0732C68.0581 27.1673 68.2131 27.2642 68.4068 27.3638C68.606 27.4634 68.8578 27.5768 69.1621 27.7041C69.7653 27.9365 70.2661 28.1772 70.6646 28.4263C71.063 28.6753 71.3618 28.9658 71.5611 29.2979C71.7603 29.6299 71.8599 30.0422 71.8599 30.5347C71.8599 30.9331 71.7852 31.2928 71.6358 31.6138C71.4919 31.9347 71.2816 32.2114 71.0049 32.4438C70.7337 32.6763 70.4045 32.8561 70.0171 32.9834C69.6353 33.1051 69.2092 33.166 68.7388 33.166C68.036 33.166 67.4411 33.0277 66.9541 32.751C66.4727 32.4688 66.1074 32.1063 65.8584 31.6636C65.6094 31.2209 65.4849 30.7533 65.4849 30.2607H67.3526C67.3692 30.6149 67.4439 30.8916 67.5767 31.0908C67.715 31.29 67.8893 31.4284 68.0996 31.5059C68.3099 31.5778 68.5285 31.6138 68.7554 31.6138C69.0266 31.6138 69.2507 31.5778 69.4278 31.5059C69.6048 31.4284 69.7377 31.3149 69.8262 31.1655C69.9203 31.0161 69.9673 30.839 69.9673 30.6343ZM79.5315 33.166C78.9504 33.166 78.433 33.0802 77.9792 32.9087C77.5254 32.7316 77.1408 32.4715 76.8254 32.1284C76.51 31.7798 76.2693 31.3537 76.1032 30.8501C75.9372 30.341 75.8542 29.7516 75.8542 29.082V28.2188C75.8542 27.4606 75.94 26.8076 76.1115 26.2598C76.2886 25.7064 76.5321 25.2526 76.842 24.8984C77.1519 24.5443 77.5171 24.2814 77.9377 24.1099C78.3638 23.9383 78.8259 23.8525 79.324 23.8525C79.8884 23.8525 80.3782 23.9438 80.7932 24.1265C81.2082 24.3091 81.5486 24.583 81.8142 24.9482C82.0853 25.3135 82.2846 25.7645 82.4118 26.3013C82.5447 26.8381 82.6111 27.4551 82.6111 28.1523V29.1235H76.7839V27.6626H80.7019V27.4551C80.6908 27.0456 80.641 26.6942 80.5525 26.4009C80.4639 26.1021 80.32 25.8752 80.1208 25.7202C79.9271 25.5597 79.6587 25.4795 79.3157 25.4795C79.0666 25.4795 78.8453 25.5265 78.6516 25.6206C78.4579 25.7147 78.2974 25.8669 78.1701 26.0771C78.0484 26.2874 77.9543 26.5697 77.8879 26.9238C77.8215 27.2725 77.7883 27.7041 77.7883 28.2188V29.082C77.7883 29.5303 77.827 29.9093 77.9045 30.2192C77.9875 30.5291 78.1093 30.7837 78.2698 30.9829C78.4302 31.1766 78.6239 31.3205 78.8508 31.4146C79.0832 31.5031 79.3516 31.5474 79.656 31.5474C80.1042 31.5474 80.4888 31.4644 80.8098 31.2983C81.1363 31.1268 81.4185 30.9054 81.6565 30.6343L82.5115 31.8213C82.351 32.0371 82.1351 32.2502 81.864 32.4604C81.5928 32.6652 81.2636 32.834 80.8762 32.9668C80.4944 33.0996 80.0461 33.166 79.5315 33.166ZM90.8803 31.1738V26.6997C90.8803 26.3898 90.836 26.1408 90.7475 25.9526C90.6645 25.7645 90.54 25.6289 90.374 25.5459C90.2135 25.4574 90.0115 25.4131 89.768 25.4131C89.5134 25.4131 89.2976 25.4657 89.1205 25.5708C88.949 25.6759 88.8189 25.8198 88.7304 26.0024C88.6419 26.1795 88.5976 26.3843 88.5976 26.6167H86.6635C86.6635 26.257 86.7354 25.9111 86.8793 25.5791C87.0287 25.2471 87.2418 24.951 87.5185 24.6909C87.7952 24.4308 88.13 24.2261 88.5229 24.0767C88.9158 23.9272 89.353 23.8525 89.8344 23.8525C90.4099 23.8525 90.9218 23.9494 91.37 24.1431C91.8183 24.3312 92.1697 24.6383 92.4242 25.0645C92.6843 25.485 92.8144 26.0384 92.8144 26.7246V30.9165C92.8144 31.3315 92.8393 31.7023 92.8891 32.0288C92.9444 32.3498 93.0191 32.6292 93.1132 32.8672V33H91.1459C91.0574 32.7842 90.991 32.5075 90.9467 32.1699C90.9024 31.8324 90.8803 31.5003 90.8803 31.1738ZM91.1376 27.5298L91.1459 28.7832H90.2162C89.9395 28.7832 89.6905 28.8219 89.4692 28.8994C89.2478 28.9714 89.0597 29.0765 88.9047 29.2148C88.7553 29.3477 88.6391 29.5109 88.5561 29.7046C88.4786 29.8983 88.4399 30.1113 88.4399 30.3438C88.4399 30.626 88.4786 30.8556 88.5561 31.0327C88.6391 31.2098 88.7581 31.3426 88.913 31.4312C89.0735 31.5142 89.2672 31.5557 89.4941 31.5557C89.804 31.5557 90.0724 31.4893 90.2992 31.3564C90.5317 31.2181 90.7087 31.0521 90.8305 30.8584C90.9578 30.6647 91.0076 30.4876 90.9799 30.3271L91.4198 31.1323C91.3756 31.3426 91.2926 31.564 91.1708 31.7964C91.0546 32.0288 90.9024 32.2502 90.7143 32.4604C90.5261 32.6707 90.2992 32.8423 90.0336 32.9751C89.768 33.1024 89.4609 33.166 89.1122 33.166C88.6087 33.166 88.1604 33.0609 87.7675 32.8506C87.3746 32.6403 87.0647 32.3387 86.8378 31.9458C86.6165 31.5474 86.5058 31.0715 86.5058 30.5181C86.5058 30.0698 86.5805 29.6631 86.7299 29.2979C86.8793 28.9326 87.1007 28.62 87.394 28.3599C87.6873 28.0942 88.0553 27.8895 88.498 27.7456C88.9462 27.6017 89.4692 27.5298 90.0668 27.5298H91.1376ZM99.2823 25.7534V33H97.3483V24.0186H99.191L99.2823 25.7534ZM101.449 23.9604L101.441 25.8696C101.33 25.842 101.211 25.8254 101.084 25.8198C100.962 25.8088 100.84 25.8032 100.718 25.8032C100.453 25.8032 100.223 25.8503 100.029 25.9443C99.8357 26.0384 99.6725 26.174 99.5397 26.3511C99.4069 26.5282 99.3017 26.7412 99.2242 26.9902C99.1523 27.2393 99.108 27.5215 99.0914 27.8369L98.6764 27.8535C98.6764 27.2891 98.7207 26.7661 98.8092 26.2847C98.8977 25.7977 99.0306 25.3743 99.2076 25.0146C99.3903 24.6494 99.6171 24.3644 99.8883 24.1597C100.159 23.9549 100.475 23.8525 100.835 23.8525C100.934 23.8525 101.048 23.8636 101.175 23.8857C101.302 23.9079 101.394 23.9328 101.449 23.9604ZM108.348 31.5474C108.597 31.5474 108.819 31.4948 109.013 31.3896C109.212 31.2845 109.369 31.1213 109.486 30.8999C109.602 30.673 109.666 30.3797 109.677 30.02H111.494C111.483 30.6564 111.337 31.2126 111.055 31.6885C110.772 32.1589 110.396 32.5241 109.926 32.7842C109.461 33.0387 108.943 33.166 108.373 33.166C107.781 33.166 107.264 33.0719 106.821 32.8838C106.384 32.6901 106.021 32.4106 105.734 32.0454C105.446 31.6802 105.23 31.2375 105.086 30.7173C104.948 30.1916 104.879 29.5911 104.879 28.916V28.1025C104.879 27.4329 104.948 26.8353 105.086 26.3096C105.23 25.7839 105.446 25.3384 105.734 24.9731C106.021 24.6079 106.384 24.3312 106.821 24.1431C107.258 23.9494 107.773 23.8525 108.365 23.8525C108.996 23.8525 109.541 23.9854 110 24.251C110.465 24.5111 110.828 24.8929 111.088 25.3965C111.348 25.9001 111.483 26.5171 111.494 27.2476H109.677C109.666 26.8602 109.607 26.5365 109.502 26.2764C109.397 26.0107 109.248 25.8115 109.054 25.6787C108.866 25.5459 108.628 25.4795 108.34 25.4795C108.025 25.4795 107.765 25.5404 107.56 25.6621C107.361 25.7783 107.206 25.9499 107.095 26.1768C106.99 26.4036 106.915 26.6803 106.871 27.0068C106.832 27.3278 106.813 27.693 106.813 28.1025V28.916C106.813 29.3366 106.832 29.7101 106.871 30.0366C106.91 30.3576 106.982 30.6315 107.087 30.8584C107.197 31.0853 107.355 31.2568 107.56 31.373C107.765 31.4893 108.027 31.5474 108.348 31.5474ZM117.448 20.25V33H115.522V20.25H117.448ZM117.107 28.1855H116.493C116.488 27.5602 116.554 26.9847 116.692 26.459C116.831 25.9333 117.03 25.474 117.29 25.0811C117.55 24.6882 117.863 24.3866 118.228 24.1763C118.599 23.9604 119.008 23.8525 119.457 23.8525C119.827 23.8525 120.162 23.9162 120.461 24.0435C120.765 24.1652 121.025 24.3589 121.241 24.6245C121.463 24.8901 121.631 25.2388 121.748 25.6704C121.864 26.0965 121.922 26.6167 121.922 27.231V33H119.988V27.2144C119.988 26.7882 119.941 26.4507 119.847 26.2017C119.758 25.9526 119.625 25.7728 119.448 25.6621C119.271 25.5514 119.047 25.4961 118.776 25.4961C118.51 25.4961 118.272 25.568 118.062 25.7119C117.852 25.8503 117.675 26.0439 117.531 26.293C117.392 26.5365 117.287 26.8215 117.215 27.1479C117.143 27.4689 117.107 27.8148 117.107 28.1855ZM130.548 28.5176H128V26.8325H130.548C130.963 26.8325 131.298 26.744 131.552 26.5669C131.813 26.3898 132.001 26.1463 132.117 25.8364C132.239 25.5265 132.3 25.1751 132.3 24.7822C132.3 24.4059 132.239 24.0518 132.117 23.7197C132.001 23.3877 131.815 23.1193 131.561 22.9146C131.306 22.7098 130.969 22.6074 130.548 22.6074H128.564V33H126.555V20.9141H130.548C131.345 20.9141 132.026 21.0801 132.59 21.4121C133.155 21.7441 133.586 22.2007 133.885 22.7817C134.184 23.3573 134.333 24.0186 134.333 24.7656C134.333 25.5459 134.184 26.2155 133.885 26.7744C133.586 27.3333 133.155 27.765 132.59 28.0693C132.026 28.3682 131.345 28.5176 130.548 28.5176ZM140.444 25.7534V33H138.51V24.0186H140.353L140.444 25.7534ZM142.611 23.9604L142.602 25.8696C142.492 25.842 142.373 25.8254 142.246 25.8198C142.124 25.8088 142.002 25.8032 141.88 25.8032C141.615 25.8032 141.385 25.8503 141.191 25.9443C140.998 26.0384 140.834 26.174 140.702 26.3511C140.569 26.5282 140.464 26.7412 140.386 26.9902C140.314 27.2393 140.27 27.5215 140.253 27.8369L139.838 27.8535C139.838 27.2891 139.883 26.7661 139.971 26.2847C140.06 25.7977 140.192 25.3743 140.37 25.0146C140.552 24.6494 140.779 24.3644 141.05 24.1597C141.321 23.9549 141.637 23.8525 141.997 23.8525C142.096 23.8525 142.21 23.8636 142.337 23.8857C142.464 23.9079 142.555 23.9328 142.611 23.9604ZM145.958 28.8745V28.1523C145.958 27.4551 146.043 26.8381 146.215 26.3013C146.387 25.7645 146.63 25.3162 146.945 24.9565C147.266 24.5913 147.643 24.3174 148.074 24.1348C148.506 23.9466 148.982 23.8525 149.502 23.8525C150.033 23.8525 150.515 23.9466 150.946 24.1348C151.384 24.3174 151.76 24.5913 152.075 24.9565C152.396 25.3162 152.643 25.7645 152.814 26.3013C152.986 26.8381 153.071 27.4551 153.071 28.1523V28.8745C153.071 29.5718 152.986 30.1888 152.814 30.7256C152.643 31.2624 152.396 31.7134 152.075 32.0786C151.76 32.4383 151.386 32.7095 150.955 32.8921C150.523 33.0747 150.044 33.166 149.519 33.166C148.998 33.166 148.52 33.0747 148.083 32.8921C147.651 32.7095 147.275 32.4383 146.954 32.0786C146.633 31.7134 146.387 31.2624 146.215 30.7256C146.043 30.1888 145.958 29.5718 145.958 28.8745ZM147.892 28.1523V28.8745C147.892 29.3228 147.93 29.7157 148.008 30.0532C148.085 30.3853 148.196 30.6619 148.34 30.8833C148.484 31.1047 148.655 31.2707 148.855 31.3813C149.054 31.492 149.275 31.5474 149.519 31.5474C149.79 31.5474 150.025 31.492 150.224 31.3813C150.429 31.2707 150.598 31.1047 150.731 30.8833C150.869 30.6619 150.971 30.3853 151.038 30.0532C151.104 29.7157 151.137 29.3228 151.137 28.8745V28.1523C151.137 27.7096 151.099 27.3223 151.021 26.9902C150.944 26.6527 150.833 26.3732 150.689 26.1519C150.545 25.925 150.371 25.7562 150.166 25.6455C149.967 25.5348 149.746 25.4795 149.502 25.4795C149.264 25.4795 149.046 25.5348 148.846 25.6455C148.653 25.7562 148.484 25.925 148.34 26.1519C148.196 26.3732 148.085 26.6527 148.008 26.9902C147.93 27.3223 147.892 27.7096 147.892 28.1523Z" fill="#428AF5"/>
</svg>
